<svg width="178" height="53" viewBox="0 0 178 53" fill="none" xmlns="http://www.w3.org/2000/svg">
<path d="M48.288 33.054V34H35V33.054H40.346V20.998H35.682V18.622H47.606V20.998H42.942V33.054H48.288ZM66.7573 33.054V34H48.2773V33.054H53.3153C52.1127 32.3647 51.1593 31.4187 50.4553 30.216C49.766 29.0133 49.4213 27.6713 49.4213 26.19C49.4213 23.9313 50.1987 22.0467 51.7533 20.536C53.308 19.0107 55.2293 18.248 57.5173 18.248C59.8053 18.248 61.7267 19.0107 63.2813 20.536C64.836 22.0467 65.6133 23.9313 65.6133 26.19C65.6133 27.6567 65.2613 28.9987 64.5573 30.216C63.868 31.4333 62.922 32.3793 61.7193 33.054H66.7573ZM61.3673 22.252C60.326 21.1667 59.0427 20.624 57.5173 20.624C55.992 20.624 54.7013 21.1667 53.6453 22.252C52.604 23.3373 52.0833 24.6573 52.0833 26.212C52.0833 27.752 52.604 29.0647 53.6453 30.15C54.7013 31.2353 55.992 31.778 57.5173 31.778C59.0427 31.778 60.326 31.2353 61.3673 30.15C62.4233 29.0647 62.9513 27.752 62.9513 26.212C62.9513 24.6573 62.4233 23.3373 61.3673 22.252ZM81.8019 33.054V34H66.7539V33.054H68.8879V18.622H74.1679C76.4999 18.622 78.2012 19.0693 79.2719 19.964C80.3426 20.8587 80.8779 22.2373 80.8779 24.1C80.8779 25.9627 80.3279 27.3267 79.2279 28.192C78.1426 29.0573 76.4706 29.49 74.2119 29.49H71.4839V33.054H81.8019ZM74.4979 27.136C75.9352 27.136 76.9106 26.8647 77.4239 26.322C77.9519 25.7647 78.2159 24.958 78.2159 23.902C78.2159 22.8313 77.8859 22.076 77.2259 21.636C76.5659 21.196 75.5319 20.976 74.1239 20.976H71.4839V27.136H74.4979ZM96.841 33.054V34H81.793V33.054H83.927V18.622H89.207C91.539 18.622 93.2403 19.0693 94.311 19.964C95.3816 20.8587 95.917 22.2373 95.917 24.1C95.917 25.9627 95.367 27.3267 94.267 28.192C93.1816 29.0573 91.5096 29.49 89.251 29.49H86.523V33.054H96.841ZM89.537 27.136C90.9743 27.136 91.9496 26.8647 92.463 26.322C92.991 25.7647 93.255 24.958 93.255 23.902C93.255 22.8313 92.925 22.076 92.265 21.636C91.605 21.196 90.571 20.976 89.163 20.976H86.523V27.136H89.537Z" fill="black"/>
<path d="M112.364 33.054V34H96.832V33.054H98.966V18.622H104.95C105.991 18.622 106.886 18.7467 107.634 18.996C108.397 19.2453 108.961 19.5827 109.328 20.008C110.032 20.8 110.384 21.6947 110.384 22.692C110.384 23.8947 110.003 24.7893 109.24 25.376C108.961 25.5813 108.771 25.7133 108.668 25.772C108.565 25.816 108.382 25.8967 108.118 26.014C109.071 26.2193 109.827 26.652 110.384 27.312C110.956 27.9573 111.242 28.764 111.242 29.732C111.242 31.184 110.67 32.2913 109.526 33.054H112.364ZM101.562 31.602H105.632C106.585 31.602 107.311 31.4553 107.81 31.162C108.323 30.854 108.58 30.282 108.58 29.446C108.58 28.082 107.487 27.4 105.302 27.4H101.562V31.602ZM101.562 25.002H104.862C106.739 25.002 107.678 24.364 107.678 23.088C107.678 22.3547 107.451 21.8267 106.996 21.504C106.541 21.1813 105.837 21.02 104.884 21.02H101.562V25.002ZM129.261 33.054V34H112.365V33.054H116.919C115.174 31.8367 114.301 29.908 114.301 27.268V18.622H116.897V27.158C116.897 28.566 117.249 29.6807 117.953 30.502C118.657 31.3233 119.611 31.734 120.813 31.734C122.016 31.734 122.969 31.3233 123.673 30.502C124.377 29.6807 124.729 28.566 124.729 27.158V18.622H127.325V27.268C127.325 29.9227 126.445 31.8513 124.685 33.054H129.261ZM134.796 33.054V27.928L129.076 18.622H131.914L136.116 25.618L140.318 18.622H143.156L137.436 27.928V33.054H142.98V34H129.252V33.054H134.796Z" fill="#0090F8"/>
<path d="M57.4802 25.9048H57.9762V25.1905H58.7202V24.7143H57.9762V24H57.4802V24.7143H56.7361V25.1905H57.4802V25.9048ZM56.4881 28.0476C56.2153 28.0476 55.9945 28.2619 55.9945 28.5238C55.9945 28.7857 56.2153 29 56.4881 29C56.7609 29 56.9841 28.7857 56.9841 28.5238C56.9841 28.2619 56.7609 28.0476 56.4881 28.0476ZM58.9683 28.0476C58.6954 28.0476 58.4747 28.2619 58.4747 28.5238C58.4747 28.7857 58.6954 29 58.9683 29C59.2411 29 59.4643 28.7857 59.4643 28.5238C59.4643 28.2619 59.2411 28.0476 58.9683 28.0476ZM56.7609 26.8571H58.6086C58.7946 26.8571 58.9583 26.7595 59.0427 26.6119L60 24.9429L59.5685 24.7143L58.6086 26.381H56.8676L55.811 24.2381H55V24.7143H55.496L56.3889 26.5214L56.0541 27.1024C55.873 27.4214 56.1111 27.8095 56.4881 27.8095H59.4643V27.3333H56.4881L56.7609 26.8571Z" fill="#0090F8"/>
</svg>
